<svg width="43" height="43" viewBox="0 0 43 43" fill="none" xmlns="http://www.w3.org/2000/svg">
<path fill-rule="evenodd" clip-rule="evenodd" d="M13.3741 1.91024C15.4758 1.81349 16.1458 1.79199 21.4993 1.79199C26.8528 1.79199 27.5229 1.81528 29.6228 1.91024C31.7226 2.0052 33.1559 2.34024 34.4101 2.82578C35.7234 3.32208 36.9148 4.09787 37.9003 5.1012C38.9036 6.08483 39.6776 7.27449 40.1721 8.58958C40.6594 9.84374 40.9927 11.2771 41.0894 13.3733C41.1862 15.4785 41.2077 16.1486 41.2077 21.5003C41.2077 26.8538 41.1844 27.5239 41.0894 29.6255C40.9945 31.7218 40.6594 33.1551 40.1721 34.4093C39.6776 35.7245 38.9023 36.9162 37.9003 37.9012C36.9148 38.9046 35.7234 39.6786 34.4101 40.1731C33.1559 40.6604 31.7226 40.9937 29.6263 41.0904C27.5229 41.1872 26.8528 41.2087 21.4993 41.2087C16.1458 41.2087 15.4758 41.1854 13.3741 41.0904C11.2779 40.9954 9.84456 40.6604 8.59039 40.1731C7.27516 39.6785 6.08353 38.9032 5.09843 37.9012C4.09578 36.917 3.31987 35.7259 2.82481 34.4111C2.33927 33.1569 2.00602 31.7236 1.90927 29.6273C1.81252 27.5221 1.79102 26.852 1.79102 21.5003C1.79102 16.1468 1.81431 15.4767 1.90927 13.3769C2.00422 11.2771 2.33927 9.84374 2.82481 8.58958C3.3206 7.27464 4.0971 6.08359 5.10022 5.09941C6.08392 4.09697 7.27436 3.32108 8.5886 2.82578C9.84276 2.34024 11.2761 2.00699 13.3723 1.91024H13.3741ZM29.4633 5.45774C27.385 5.36278 26.7615 5.34308 21.4993 5.34308C16.2372 5.34308 15.6137 5.36278 13.5354 5.45774C11.6129 5.54553 10.5702 5.86624 9.87502 6.13678C8.95589 6.49512 8.29835 6.91974 7.60856 7.60953C6.95468 8.24567 6.45146 9.02008 6.13581 9.87599C5.86527 10.5712 5.54456 11.6139 5.45677 13.5364C5.36181 15.6147 5.3421 16.2382 5.3421 21.5003C5.3421 26.7624 5.36181 27.3859 5.45677 29.4643C5.54456 31.3867 5.86527 32.4295 6.13581 33.1247C6.45114 33.9793 6.9546 34.7551 7.60856 35.3911C8.2446 36.0451 9.02039 36.5485 9.87502 36.8639C10.5702 37.1344 11.6129 37.4551 13.5354 37.5429C15.6137 37.6379 16.2354 37.6576 21.4993 37.6576C26.7633 37.6576 27.385 37.6379 29.4633 37.5429C31.3858 37.4551 32.4285 37.1344 33.1237 36.8639C34.0428 36.5055 34.7003 36.0809 35.3901 35.3911C36.0441 34.7551 36.5476 33.9793 36.8629 33.1247C37.1334 32.4295 37.4541 31.3867 37.5419 29.4643C37.6369 27.3859 37.6566 26.7624 37.6566 21.5003C37.6566 16.2382 37.6369 15.6147 37.5419 13.5364C37.4541 11.6139 37.1334 10.5712 36.8629 9.87599C36.5046 8.95687 36.0799 8.29933 35.3901 7.60953C34.754 6.9557 33.9796 6.45249 33.1237 6.13678C32.4285 5.86624 31.3858 5.54553 29.4633 5.45774ZM18.9821 27.5759C20.3879 28.1611 21.9533 28.2401 23.4109 27.7993C24.8685 27.3586 26.1279 26.4255 26.974 25.1593C27.82 23.8932 28.2003 22.3726 28.0498 20.8573C27.8992 19.342 27.2273 17.9259 26.1487 16.8509C25.4611 16.1638 24.6298 15.6377 23.7144 15.3104C22.7991 14.9831 21.8226 14.8628 20.8552 14.9583C19.8879 15.0537 18.9537 15.3624 18.1199 15.8622C17.2862 16.362 16.5736 17.0404 16.0335 17.8486C15.4934 18.6569 15.1393 19.5748 14.9965 20.5363C14.8538 21.4979 14.926 22.4791 15.208 23.4094C15.49 24.3396 15.9747 25.1958 16.6273 25.9163C17.2799 26.6367 18.0841 27.2035 18.9821 27.5759ZM14.3363 14.3372C15.2769 13.3966 16.3937 12.6504 17.6227 12.1413C18.8518 11.6322 20.169 11.3702 21.4993 11.3702C22.8297 11.3702 24.1469 11.6322 25.376 12.1413C26.605 12.6504 27.7218 13.3966 28.6624 14.3372C29.6031 15.2779 30.3493 16.3946 30.8584 17.6237C31.3675 18.8527 31.6295 20.17 31.6295 21.5003C31.6295 22.8306 31.3675 24.1479 30.8584 25.377C30.3493 26.606 29.6031 27.7227 28.6624 28.6634C26.7627 30.5632 24.186 31.6305 21.4993 31.6305C18.8127 31.6305 16.236 30.5632 14.3363 28.6634C12.4365 26.7636 11.3692 24.187 11.3692 21.5003C11.3692 18.8136 12.4365 16.237 14.3363 14.3372ZM33.8762 12.8788C34.1093 12.6589 34.2959 12.3945 34.425 12.1012C34.5541 11.8079 34.623 11.4917 34.6276 11.1712C34.6323 10.8508 34.5726 10.5327 34.4522 10.2358C34.3317 9.93883 34.1529 9.66907 33.9263 9.44248C33.6997 9.21588 33.4299 9.03706 33.133 8.91659C32.836 8.79611 32.5179 8.73645 32.1975 8.74112C31.8771 8.74579 31.5609 8.8147 31.2676 8.94378C30.9743 9.07286 30.7098 9.25947 30.4899 9.49257C30.0623 9.94592 29.8281 10.5481 29.8372 11.1712C29.8463 11.7944 30.0979 12.3895 30.5386 12.8302C30.9793 13.2709 31.5744 13.5224 32.1975 13.5315C32.8207 13.5406 33.4228 13.3065 33.8762 12.8788Z" fill="#F4698F"/>
</svg>
