<svg width="42" height="36" viewBox="0 0 42 36" fill="none" xmlns="http://www.w3.org/2000/svg">
<path d="M30.625 11.8125H34.7034C34.3026 17.7587 31.2831 22.0935 26.5 23.9184V20.75H15.5V23.9184C10.7171 22.0935 7.69739 17.7587 7.29658 11.8125H11.375V0.8125H0.375V11.8125H4.54048C4.79769 16.1415 6.28002 19.8796 8.86666 22.6868C10.1298 24.0593 11.6433 25.1782 13.3258 25.9836L9.12344 27.3844C8.90619 27.0979 8.65811 26.8361 8.38369 26.6038C7.89559 26.1912 7.33101 25.8789 6.72219 25.6845C6.11337 25.4901 5.47222 25.4176 4.83536 25.471C4.19849 25.5244 3.57839 25.7027 3.01044 25.9958C2.4425 26.2888 1.93784 26.6909 1.52527 27.179C0.926861 27.8871 0.543155 28.7514 0.419304 29.6703C0.295452 30.5891 0.436608 31.5242 0.826163 32.3655C1.21572 33.2068 1.83746 33.9193 2.61824 34.4193C3.39902 34.9192 4.30635 35.1857 5.23348 35.1875C5.37098 35.1875 5.50925 35.1818 5.6483 35.1703C6.92662 35.0633 8.11097 34.4558 8.94356 33.4799C9.77616 32.504 10.1896 31.2388 10.0939 29.9596L15.5 28.1578V31.75H26.5V28.1578L31.9055 29.9593C31.8867 30.2151 31.888 30.4719 31.9092 30.7275C32.0112 31.942 32.5651 33.074 33.4615 33.8998C34.3578 34.7256 35.5313 35.1851 36.7501 35.1875C36.8876 35.1875 37.0259 35.1818 37.165 35.1703C37.9626 35.1034 38.7313 34.8409 39.4031 34.406C40.075 33.9711 40.6292 33.3771 41.0167 32.6769C41.4041 31.9766 41.6129 31.1916 41.6245 30.3913C41.6362 29.5911 41.4502 28.8003 41.0832 28.0891C40.7162 27.3778 40.1795 26.7681 39.5206 26.3139C38.8616 25.8596 38.1008 25.5749 37.3056 25.4849C36.5103 25.3949 35.7051 25.5025 34.9614 25.798C34.2176 26.0935 33.5582 26.5679 33.0416 27.1792C32.9847 27.2464 32.9298 27.3151 32.8774 27.3847L28.6742 25.9836C30.3568 25.1783 31.8703 24.0593 33.1336 22.6868C35.7203 19.8796 37.2026 16.1415 37.4598 11.8125H41.625V0.8125H30.625V11.8125ZM3.125 9.0625V3.5625H8.625V9.0625H3.125ZM6.85813 31.6873C6.49573 32.116 5.97787 32.3832 5.41847 32.4301C4.85907 32.477 4.30395 32.2997 3.87523 31.9373C3.44652 31.5749 3.17932 31.0571 3.13242 30.4977C3.08552 29.9383 3.26276 29.3832 3.62516 28.9545C3.80408 28.7416 4.02345 28.5663 4.27056 28.4388C4.51767 28.3113 4.78762 28.2341 5.06478 28.2116C5.12511 28.2066 5.18527 28.2041 5.24525 28.204C5.64852 28.2047 6.0432 28.3206 6.38284 28.5381C6.72247 28.7555 6.99293 29.0654 7.16238 29.4314C7.33183 29.7973 7.39321 30.204 7.33931 30.6037C7.28541 31.0033 7.11847 31.3793 6.85813 31.6873ZM23.75 29H18.25V23.5H23.75V29ZM35.1419 28.9545C35.3208 28.7417 35.5402 28.5664 35.7873 28.4389C36.0344 28.3114 36.3043 28.2342 36.5815 28.2117C36.6418 28.2067 36.702 28.2042 36.762 28.2041C37.244 28.2048 37.7114 28.37 38.0868 28.6724C38.4623 28.9748 38.7233 29.3962 38.8267 29.8671C38.9301 30.3379 38.8697 30.8299 38.6555 31.2618C38.4414 31.6937 38.0862 32.0395 37.6488 32.2421C37.2114 32.4448 36.7179 32.4921 36.25 32.3762C35.7821 32.2603 35.3677 31.9882 35.0754 31.6049C34.7831 31.2216 34.6304 30.75 34.6425 30.2681C34.6546 29.7861 34.8308 29.3228 35.142 28.9546L35.1419 28.9545ZM33.375 3.5625H38.875V9.0625H33.375V3.5625Z" fill="#F4698F"/>
</svg>
