<svg width="42" height="42" viewBox="0 0 42 42" fill="none" xmlns="http://www.w3.org/2000/svg">
<path d="M31.2233 14.7233C31.4815 14.4651 31.6265 14.1149 31.6265 13.7498C31.6265 13.3847 31.4815 13.0345 31.2233 12.7763C30.9651 12.5181 30.6149 12.373 30.2498 12.373C29.8846 12.373 29.5345 12.5181 29.2763 12.7763L21.9998 20.0555L18.8483 16.9013C18.7204 16.7734 18.5687 16.672 18.4016 16.6028C18.2346 16.5337 18.0556 16.498 17.8748 16.498C17.694 16.498 17.515 16.5337 17.3479 16.6028C17.1809 16.672 17.0291 16.7734 16.9013 16.9013C16.7734 17.0291 16.672 17.1809 16.6028 17.3479C16.5337 17.515 16.498 17.694 16.498 17.8748C16.498 18.0556 16.5337 18.2346 16.6028 18.4016C16.672 18.5687 16.7734 18.7204 16.9013 18.8483L21.0263 22.9733C21.154 23.1013 21.3057 23.2029 21.4728 23.2722C21.6398 23.3416 21.8189 23.3772 21.9998 23.3772C22.1806 23.3772 22.3597 23.3416 22.5268 23.2722C22.6938 23.2029 22.8456 23.1013 22.9733 22.9733L31.2233 14.7233Z" fill="#F4698F"/>
<path d="M1.375 0C1.01033 0 0.660591 0.144866 0.402728 0.402728C0.144866 0.660591 0 1.01033 0 1.375C0 1.73967 0.144866 2.08941 0.402728 2.34727C0.660591 2.60513 1.01033 2.75 1.375 2.75H4.4275L5.53025 7.16925L9.64975 29.128C9.70873 29.4431 9.87595 29.7277 10.1225 29.9325C10.3691 30.1374 10.6794 30.2497 11 30.25H13.75C12.2913 30.25 10.8924 30.8295 9.86091 31.8609C8.82946 32.8924 8.25 34.2913 8.25 35.75C8.25 37.2087 8.82946 38.6076 9.86091 39.6391C10.8924 40.6705 12.2913 41.25 13.75 41.25C15.2087 41.25 16.6076 40.6705 17.6391 39.6391C18.6705 38.6076 19.25 37.2087 19.25 35.75C19.25 34.2913 18.6705 32.8924 17.6391 31.8609C16.6076 30.8295 15.2087 30.25 13.75 30.25H33C31.5413 30.25 30.1424 30.8295 29.1109 31.8609C28.0795 32.8924 27.5 34.2913 27.5 35.75C27.5 37.2087 28.0795 38.6076 29.1109 39.6391C30.1424 40.6705 31.5413 41.25 33 41.25C34.4587 41.25 35.8576 40.6705 36.8891 39.6391C37.9205 38.6076 38.5 37.2087 38.5 35.75C38.5 34.2913 37.9205 32.8924 36.8891 31.8609C35.8576 30.8295 34.4587 30.25 33 30.25H35.75C36.0706 30.2497 36.3809 30.1374 36.6275 29.9325C36.874 29.7277 37.0413 29.4431 37.1003 29.128L41.2253 7.128C41.2624 6.92955 41.2554 6.72536 41.2047 6.52992C41.1541 6.33449 41.061 6.15261 40.9321 5.99721C40.8032 5.84181 40.6417 5.7167 40.459 5.63076C40.2763 5.54483 40.0769 5.50019 39.875 5.5H7.9475L6.83375 1.04225C6.75953 0.744656 6.58793 0.480422 6.34626 0.291568C6.10459 0.102714 5.80671 8.47316e-05 5.5 0H1.375ZM12.1412 27.5L8.5305 8.25H38.2195L34.6087 27.5H12.1412ZM16.5 35.75C16.5 36.4793 16.2103 37.1788 15.6945 37.6945C15.1788 38.2103 14.4793 38.5 13.75 38.5C13.0207 38.5 12.3212 38.2103 11.8055 37.6945C11.2897 37.1788 11 36.4793 11 35.75C11 35.0207 11.2897 34.3212 11.8055 33.8055C12.3212 33.2897 13.0207 33 13.75 33C14.4793 33 15.1788 33.2897 15.6945 33.8055C16.2103 34.3212 16.5 35.0207 16.5 35.75ZM35.75 35.75C35.75 36.4793 35.4603 37.1788 34.9445 37.6945C34.4288 38.2103 33.7293 38.5 33 38.5C32.2707 38.5 31.5712 38.2103 31.0555 37.6945C30.5397 37.1788 30.25 36.4793 30.25 35.75C30.25 35.0207 30.5397 34.3212 31.0555 33.8055C31.5712 33.2897 32.2707 33 33 33C33.7293 33 34.4288 33.2897 34.9445 33.8055C35.4603 34.3212 35.75 35.0207 35.75 35.75Z" fill="#F4698F"/>
</svg>
