<svg width="52" height="53" viewBox="0 0 52 53" fill="none" xmlns="http://www.w3.org/2000/svg">
<path d="M43.0727 40.7882C44.026 39.2424 44.5893 37.4537 44.5893 35.5103C44.5893 30.0116 40.2343 25.5728 34.8393 25.5728C29.4443 25.5728 25.0893 30.0116 25.0893 35.5103C25.0893 41.0091 29.4443 45.4478 34.8177 45.4478C36.7243 45.4478 38.501 44.8737 39.996 43.902L46.756 50.792L49.8327 47.6562L43.0727 40.7882ZM34.8393 41.0312C33.4028 41.0312 32.025 40.4495 31.0092 39.4141C29.9934 38.3788 29.4227 36.9745 29.4227 35.5103C29.4227 34.0461 29.9934 32.6419 31.0092 31.6065C32.025 30.5711 33.4028 29.9895 34.8393 29.9895C36.2759 29.9895 37.6537 30.5711 38.6695 31.6065C39.6853 32.6419 40.256 34.0461 40.256 35.5103C40.256 36.9745 39.6853 38.3788 38.6695 39.4141C37.6537 40.4495 36.2759 41.0312 34.8393 41.0312ZM34.0593 22.2603C32.456 22.3045 30.9177 22.6578 29.5093 23.2541L28.3177 21.4212L20.0843 35.0687L13.5627 27.2953L5.69768 40.1257L2.16602 37.542L12.9993 19.8753L19.4993 27.6045L28.166 13.2503L34.0593 22.2603ZM39.671 23.3645C38.2843 22.7462 36.7893 22.3707 35.2293 22.2824L46.3227 4.41699L49.8327 7.02283L39.671 23.3645Z" fill="#F4698F"/>
</svg>
