<svg width="44" height="36" viewBox="0 0 44 36" fill="none" xmlns="http://www.w3.org/2000/svg">
<path d="M40.1176 36H3.88235C1.68235 36 0 34.3226 0 32.129V8.90322C0 6.70968 1.68235 5.03226 3.88235 5.03226H11.6471C11.9059 5.03226 12.2941 4.77419 12.4235 4.64516L13.8471 1.80645C14.3647 0.774193 15.6588 0 16.8235 0H27.1765C28.3412 0 29.6353 0.774193 30.1529 1.80645L31.5765 4.64516C31.7059 4.90322 32.0941 5.03226 32.3529 5.03226H40.1176C42.3176 5.03226 44 6.70968 44 8.90322V32.129C44 34.3226 42.3176 36 40.1176 36ZM3.88235 7.6129C3.10588 7.6129 2.58824 8.12903 2.58824 8.90322V32.129C2.58824 32.9032 3.10588 33.4194 3.88235 33.4194H40.1176C40.8941 33.4194 41.4118 32.9032 41.4118 32.129V8.90322C41.4118 8.12903 40.8941 7.6129 40.1176 7.6129H32.3529C31.1882 7.6129 29.8941 6.83871 29.3765 5.80645L27.9529 2.96774C27.8235 2.70968 27.4353 2.45161 27.1765 2.45161H16.8235C16.5647 2.45161 16.1765 2.70968 16.0471 2.83871L14.6235 5.67742C14.1059 6.83871 12.8118 7.6129 11.6471 7.6129H3.88235Z" fill="#F4698F"/>
<path d="M21.9996 30.8391C15.529 30.8391 10.3525 25.6778 10.3525 19.2262C10.3525 12.7746 15.529 7.61328 21.9996 7.61328C28.4702 7.61328 33.6467 12.7746 33.6467 19.2262C33.6467 25.6778 28.4702 30.8391 21.9996 30.8391ZM21.9996 10.1939C16.9525 10.1939 12.9408 14.1939 12.9408 19.2262C12.9408 24.2584 16.9525 28.2584 21.9996 28.2584C27.0467 28.2584 31.0584 24.2584 31.0584 19.2262C31.0584 14.1939 27.0467 10.1939 21.9996 10.1939Z" fill="#F4698F"/>
<path d="M34.9416 11.484C35.6563 11.484 36.2357 10.9063 36.2357 10.1936C36.2357 9.48102 35.6563 8.90332 34.9416 8.90332C34.2269 8.90332 33.6475 9.48102 33.6475 10.1936C33.6475 10.9063 34.2269 11.484 34.9416 11.484Z" fill="#F4698F"/>
<path d="M5.17676 2.45117H10.3532V3.74149H5.17676V2.45117ZM22.0003 14.0641V12.7738C18.3768 12.7738 15.5297 15.6125 15.5297 19.2254H16.8238C16.8238 16.3867 19.1532 14.0641 22.0003 14.0641Z" fill="#F4698F"/>
</svg>
