<svg width="40" height="38" viewBox="0 0 40 38" fill="none" xmlns="http://www.w3.org/2000/svg">
<path d="M16.9394 16.4587L11.8423 11.4471L5.4082 17.7729L10.5052 22.7844L10.502 22.7877L16.0058 28.1991L16.9391 29.1103L16.9424 29.1135L22.4461 23.7021L23.3727 22.7844L39.9996 6.43711L33.5657 0.111328L16.9394 16.4587ZM20.5833 21.8701L19.6565 22.7877L16.9393 25.4592L16.936 25.4561L14.2221 22.7877L14.2254 22.7844L9.12834 17.7729L11.8422 15.1045L16.9393 20.116L33.5657 3.76871L36.2797 6.43711L20.5833 21.8701Z" fill="#F4698F"/>
<path d="M35.5097 34.9138H2.63035V2.58621H27.3079L29.9383 0H0V37.5H38.14V11.8881L35.5097 14.4743V34.9138Z" fill="#F4698F"/>
</svg>
